<svg width="360" height="63" viewBox="0 0 360 63" fill="none" xmlns="http://www.w3.org/2000/svg">
<rect y="-52" width="360" height="115" rx="50" fill="#5451D7"/>
<path d="M208.98 39.09C207.58 39.09 206.35 38.73 205.29 38.01C204.23 37.29 203.4 36.33 202.8 35.13C202.2 33.91 201.9 32.58 201.9 31.14C201.9 29.62 202.21 28.25 202.83 27.03C203.45 25.79 204.31 24.81 205.41 24.09C206.51 23.37 207.78 23.01 209.22 23.01C210.44 23.01 211.51 23.29 212.43 23.85C213.35 24.39 214.11 25.12 214.71 26.04V23.28H218.22V38.25C218.22 39.81 217.84 41.14 217.08 42.24C216.34 43.36 215.31 44.21 213.99 44.79C212.67 45.39 211.17 45.69 209.49 45.69C207.77 45.69 206.32 45.4 205.14 44.82C203.98 44.26 202.98 43.46 202.14 42.42L204.33 40.29C204.93 41.03 205.68 41.61 206.58 42.03C207.5 42.45 208.47 42.66 209.49 42.66C210.33 42.66 211.1 42.5 211.8 42.18C212.52 41.88 213.1 41.4 213.54 40.74C213.98 40.1 214.2 39.27 214.2 38.25V36.27C213.68 37.17 212.94 37.87 211.98 38.37C211.04 38.85 210.04 39.09 208.98 39.09ZM210.33 35.88C211.21 35.88 212 35.62 212.7 35.1C213.42 34.58 213.92 33.96 214.2 33.24V29.49C213.84 28.57 213.27 27.83 212.49 27.27C211.73 26.71 210.93 26.43 210.09 26.43C209.27 26.43 208.55 26.66 207.93 27.12C207.33 27.58 206.86 28.18 206.52 28.92C206.18 29.64 206.01 30.42 206.01 31.26C206.01 32.12 206.2 32.9 206.58 33.6C206.96 34.3 207.47 34.86 208.11 35.28C208.77 35.68 209.51 35.88 210.33 35.88ZM220.764 34.35C220.764 33.33 221.044 32.44 221.604 31.68C222.184 30.9 222.984 30.3 224.004 29.88C225.024 29.46 226.194 29.25 227.514 29.25C228.174 29.25 228.844 29.31 229.524 29.43C230.204 29.53 230.794 29.68 231.294 29.88V29.04C231.294 28.04 230.994 27.27 230.394 26.73C229.814 26.19 228.944 25.92 227.784 25.92C226.924 25.92 226.104 26.07 225.324 26.37C224.544 26.67 223.724 27.11 222.864 27.69L221.574 25.05C222.614 24.37 223.674 23.86 224.754 23.52C225.854 23.18 227.004 23.01 228.204 23.01C230.444 23.01 232.184 23.57 233.424 24.69C234.684 25.81 235.314 27.41 235.314 29.49V34.5C235.314 34.94 235.384 35.25 235.524 35.43C235.664 35.59 235.914 35.69 236.274 35.73V39C235.914 39.08 235.584 39.13 235.284 39.15C235.004 39.19 234.764 39.21 234.564 39.21C233.764 39.21 233.154 39.03 232.734 38.67C232.314 38.31 232.064 37.87 231.984 37.35L231.894 36.54C231.194 37.44 230.334 38.13 229.314 38.61C228.314 39.07 227.284 39.3 226.224 39.3C225.164 39.3 224.224 39.09 223.404 38.67C222.584 38.23 221.934 37.64 221.454 36.9C220.994 36.14 220.764 35.29 220.764 34.35ZM230.544 35.16C231.044 34.68 231.294 34.22 231.294 33.78V32.19C230.254 31.77 229.204 31.56 228.144 31.56C227.084 31.56 226.224 31.79 225.564 32.25C224.904 32.69 224.574 33.28 224.574 34.02C224.574 34.62 224.814 35.16 225.294 35.64C225.774 36.12 226.464 36.36 227.364 36.36C227.964 36.36 228.544 36.25 229.104 36.03C229.684 35.81 230.164 35.52 230.544 35.16ZM244.86 39.3C243.52 39.3 242.24 39.08 241.02 38.64C239.8 38.2 238.75 37.55 237.87 36.69L239.31 34.08C240.25 34.84 241.17 35.4 242.07 35.76C242.97 36.12 243.85 36.3 244.71 36.3C245.49 36.3 246.11 36.16 246.57 35.88C247.05 35.6 247.29 35.18 247.29 34.62C247.29 34.04 247 33.65 246.42 33.45C245.84 33.23 245.03 32.96 243.99 32.64C242.83 32.28 241.86 31.91 241.08 31.53C240.3 31.15 239.71 30.69 239.31 30.15C238.93 29.61 238.74 28.91 238.74 28.05C238.74 26.51 239.32 25.28 240.48 24.36C241.64 23.44 243.18 22.98 245.1 22.98C246.22 22.98 247.28 23.16 248.28 23.52C249.28 23.86 250.19 24.42 251.01 25.2L249.39 27.75C247.85 26.55 246.36 25.95 244.92 25.95C244.28 25.95 243.71 26.07 243.21 26.31C242.73 26.55 242.49 26.97 242.49 27.57C242.49 28.13 242.72 28.53 243.18 28.77C243.66 29.01 244.38 29.27 245.34 29.55C246.58 29.93 247.63 30.3 248.49 30.66C249.37 31.02 250.03 31.48 250.47 32.04C250.93 32.6 251.16 33.36 251.16 34.32C251.16 35.88 250.59 37.1 249.45 37.98C248.31 38.86 246.78 39.3 244.86 39.3ZM263.227 38.19C262.687 38.43 262.017 38.67 261.217 38.91C260.437 39.15 259.627 39.27 258.787 39.27C258.047 39.27 257.367 39.14 256.747 38.88C256.127 38.62 255.627 38.21 255.247 37.65C254.887 37.07 254.707 36.32 254.707 35.4V26.37H252.637V23.28H254.707V18.18H258.727V23.28H262.027V26.37H258.727V34.05C258.727 34.59 258.867 34.98 259.147 35.22C259.447 35.46 259.807 35.58 260.227 35.58C260.647 35.58 261.057 35.51 261.457 35.37C261.857 35.23 262.177 35.11 262.417 35.01L263.227 38.19ZM272.375 39.3C270.655 39.3 269.175 38.93 267.935 38.19C266.715 37.43 265.775 36.43 265.115 35.19C264.455 33.95 264.125 32.61 264.125 31.17C264.125 29.71 264.455 28.36 265.115 27.12C265.795 25.88 266.745 24.89 267.965 24.15C269.205 23.39 270.675 23.01 272.375 23.01C274.075 23.01 275.535 23.39 276.755 24.15C277.995 24.89 278.945 25.88 279.605 27.12C280.265 28.36 280.595 29.71 280.595 31.17C280.595 32.61 280.265 33.95 279.605 35.19C278.945 36.43 277.995 37.43 276.755 38.19C275.535 38.93 274.075 39.3 272.375 39.3ZM268.265 31.17C268.265 32.09 268.445 32.91 268.805 33.63C269.165 34.33 269.655 34.88 270.275 35.28C270.895 35.68 271.595 35.88 272.375 35.88C273.135 35.88 273.825 35.68 274.445 35.28C275.065 34.86 275.555 34.3 275.915 33.6C276.295 32.88 276.485 32.06 276.485 31.14C276.485 30.24 276.295 29.44 275.915 28.74C275.555 28.02 275.065 27.46 274.445 27.06C273.825 26.64 273.135 26.43 272.375 26.43C271.595 26.43 270.895 26.64 270.275 27.06C269.655 27.46 269.165 28.02 268.805 28.74C268.445 29.44 268.265 30.25 268.265 31.17ZM284.816 32.01C284.816 31.03 284.976 30.15 285.296 29.37C285.616 28.59 286.276 27.91 287.276 27.33C287.576 27.15 287.946 26.94 288.386 26.7C288.826 26.46 289.256 26.18 289.676 25.86C290.096 25.54 290.446 25.17 290.726 24.75C291.026 24.33 291.176 23.84 291.176 23.28C291.176 22.46 290.886 21.83 290.306 21.39C289.726 20.93 289.066 20.7 288.326 20.7C287.446 20.7 286.716 20.97 286.136 21.51C285.556 22.03 285.106 22.56 284.786 23.1L282.176 21.3C282.696 20.08 283.526 19.13 284.666 18.45C285.826 17.77 287.086 17.43 288.446 17.43C289.466 17.43 290.446 17.64 291.386 18.06C292.346 18.46 293.136 19.1 293.756 19.98C294.376 20.84 294.686 21.96 294.686 23.34C294.686 24.62 294.396 25.64 293.816 26.4C293.236 27.14 292.476 27.8 291.536 28.38C290.996 28.7 290.466 29.01 289.946 29.31C289.426 29.61 288.986 29.97 288.626 30.39C288.286 30.79 288.116 31.33 288.116 32.01H284.816ZM284.876 39V34.86H288.206V39H284.876Z" fill="#B7AEED"/>
<path d="M76.31 39.15C74.75 39.15 73.33 38.85 72.05 38.25C70.79 37.63 69.7 36.81 68.78 35.79C67.88 34.77 67.18 33.62 66.68 32.34C66.18 31.04 65.93 29.71 65.93 28.35C65.93 26.93 66.19 25.58 66.71 24.3C67.23 23 67.96 21.85 68.9 20.85C69.84 19.83 70.94 19.03 72.2 18.45C73.48 17.85 74.88 17.55 76.4 17.55C77.94 17.55 79.34 17.86 80.6 18.48C81.88 19.1 82.97 19.93 83.87 20.97C84.79 22.01 85.49 23.18 85.97 24.48C86.47 25.76 86.72 27.07 86.72 28.41C86.72 29.77 86.47 31.09 85.97 32.37C85.49 33.63 84.81 34.75 83.93 35.73L86.84 39H82.94L81.68 37.62C80.92 38.1 80.08 38.48 79.16 38.76C78.26 39.02 77.31 39.15 76.31 39.15ZM76.34 35.49C76.88 35.49 77.38 35.43 77.84 35.31C78.32 35.17 78.76 34.99 79.16 34.77L75.92 31.11H79.82L81.29 32.76C81.69 32.12 82 31.42 82.22 30.66C82.44 29.9 82.55 29.13 82.55 28.35C82.55 27.11 82.3 25.95 81.8 24.87C81.3 23.79 80.58 22.91 79.64 22.23C78.72 21.55 77.62 21.21 76.34 21.21C75 21.21 73.87 21.56 72.95 22.26C72.03 22.96 71.33 23.86 70.85 24.96C70.37 26.06 70.13 27.19 70.13 28.35C70.13 29.59 70.37 30.75 70.85 31.83C71.35 32.91 72.06 33.79 72.98 34.47C73.92 35.15 75.04 35.49 76.34 35.49ZM89.3265 33.12V23.28H93.3465V32.25C93.3465 34.67 94.2165 35.88 95.9565 35.88C96.7365 35.88 97.4865 35.65 98.2065 35.19C98.9465 34.71 99.5465 33.99 100.006 33.03V23.28H104.026V34.5C104.026 34.94 104.096 35.25 104.236 35.43C104.376 35.59 104.626 35.69 104.986 35.73V39C104.586 39.08 104.246 39.13 103.966 39.15C103.706 39.17 103.466 39.18 103.246 39.18C102.526 39.18 101.936 39.02 101.476 38.7C101.036 38.36 100.776 37.9 100.696 37.32L100.606 36.06C99.9065 37.14 99.0065 37.95 97.9065 38.49C96.8065 39.03 95.5965 39.3 94.2765 39.3C92.6565 39.3 91.4265 38.78 90.5865 37.74C89.7465 36.68 89.3265 35.14 89.3265 33.12ZM106.941 34.35C106.941 33.33 107.221 32.44 107.781 31.68C108.361 30.9 109.161 30.3 110.181 29.88C111.201 29.46 112.371 29.25 113.691 29.25C114.351 29.25 115.021 29.31 115.701 29.43C116.381 29.53 116.971 29.68 117.471 29.88V29.04C117.471 28.04 117.171 27.27 116.571 26.73C115.991 26.19 115.121 25.92 113.961 25.92C113.101 25.92 112.281 26.07 111.501 26.37C110.721 26.67 109.901 27.11 109.041 27.69L107.751 25.05C108.791 24.37 109.851 23.86 110.931 23.52C112.031 23.18 113.181 23.01 114.381 23.01C116.621 23.01 118.361 23.57 119.601 24.69C120.861 25.81 121.491 27.41 121.491 29.49V34.5C121.491 34.94 121.561 35.25 121.701 35.43C121.841 35.59 122.091 35.69 122.451 35.73V39C122.091 39.08 121.761 39.13 121.461 39.15C121.181 39.19 120.941 39.21 120.741 39.21C119.941 39.21 119.331 39.03 118.911 38.67C118.491 38.31 118.241 37.87 118.161 37.35L118.071 36.54C117.371 37.44 116.511 38.13 115.491 38.61C114.491 39.07 113.461 39.3 112.401 39.3C111.341 39.3 110.401 39.09 109.581 38.67C108.761 38.23 108.111 37.64 107.631 36.9C107.171 36.14 106.941 35.29 106.941 34.35ZM116.721 35.16C117.221 34.68 117.471 34.22 117.471 33.78V32.19C116.431 31.77 115.381 31.56 114.321 31.56C113.261 31.56 112.401 31.79 111.741 32.25C111.081 32.69 110.751 33.28 110.751 34.02C110.751 34.62 110.991 35.16 111.471 35.64C111.951 36.12 112.641 36.36 113.541 36.36C114.141 36.36 114.721 36.25 115.281 36.03C115.861 35.81 116.341 35.52 116.721 35.16ZM139.858 39H135.838V30.18C135.838 28.92 135.618 28 135.178 27.42C134.738 26.84 134.128 26.55 133.348 26.55C132.808 26.55 132.258 26.69 131.698 26.97C131.158 27.25 130.668 27.64 130.228 28.14C129.788 28.62 129.468 29.18 129.268 29.82V39H125.248V23.28H128.878V26.19C129.458 25.21 130.298 24.44 131.398 23.88C132.498 23.3 133.738 23.01 135.118 23.01C136.098 23.01 136.898 23.19 137.518 23.55C138.138 23.89 138.618 24.36 138.958 24.96C139.298 25.54 139.528 26.2 139.648 26.94C139.788 27.68 139.858 28.43 139.858 29.19V39ZM152.686 38.19C152.146 38.43 151.476 38.67 150.676 38.91C149.896 39.15 149.086 39.27 148.246 39.27C147.506 39.27 146.826 39.14 146.206 38.88C145.586 38.62 145.086 38.21 144.706 37.65C144.346 37.07 144.166 36.32 144.166 35.4V26.37H142.096V23.28H144.166V18.18H148.186V23.28H151.486V26.37H148.186V34.05C148.186 34.59 148.326 34.98 148.606 35.22C148.906 35.46 149.266 35.58 149.686 35.58C150.106 35.58 150.516 35.51 150.916 35.37C151.316 35.23 151.636 35.11 151.876 35.01L152.686 38.19ZM161.834 39.3C160.114 39.3 158.634 38.93 157.394 38.19C156.174 37.43 155.234 36.43 154.574 35.19C153.914 33.95 153.584 32.61 153.584 31.17C153.584 29.71 153.914 28.36 154.574 27.12C155.254 25.88 156.204 24.89 157.424 24.15C158.664 23.39 160.134 23.01 161.834 23.01C163.534 23.01 164.994 23.39 166.214 24.15C167.454 24.89 168.404 25.88 169.064 27.12C169.724 28.36 170.054 29.71 170.054 31.17C170.054 32.61 169.724 33.95 169.064 35.19C168.404 36.43 167.454 37.43 166.214 38.19C164.994 38.93 163.534 39.3 161.834 39.3ZM157.724 31.17C157.724 32.09 157.904 32.91 158.264 33.63C158.624 34.33 159.114 34.88 159.734 35.28C160.354 35.68 161.054 35.88 161.834 35.88C162.594 35.88 163.284 35.68 163.904 35.28C164.524 34.86 165.014 34.3 165.374 33.6C165.754 32.88 165.944 32.06 165.944 31.14C165.944 30.24 165.754 29.44 165.374 28.74C165.014 28.02 164.524 27.46 163.904 27.06C163.284 26.64 162.594 26.43 161.834 26.43C161.054 26.43 160.354 26.64 159.734 27.06C159.114 27.46 158.624 28.02 158.264 28.74C157.904 29.44 157.724 30.25 157.724 31.17Z" fill="#8075FF"/>
<path d="M176.928 39.6446C175.801 39.6446 174.839 39.3933 174.042 38.8906C173.245 38.3706 172.638 37.6773 172.222 36.8106C171.806 35.9439 171.598 34.9733 171.598 33.8986C171.598 32.8066 171.797 31.7666 172.196 30.7786C172.612 29.7733 173.193 28.8806 173.938 28.1006C174.683 27.3206 175.55 26.7053 176.538 26.2546C177.543 25.8039 178.635 25.5786 179.814 25.5786C181.149 25.5786 182.232 25.8906 183.064 26.5146C183.913 27.1213 184.338 28.0313 184.338 29.2446C184.338 30.6139 183.731 31.6539 182.518 32.3646C181.305 33.0753 179.441 33.4306 176.928 33.4306C176.529 33.4306 176.079 33.4219 175.576 33.4046C175.091 33.3873 174.545 33.3526 173.938 33.3006C173.921 33.5086 173.912 33.7079 173.912 33.8986C173.912 34.6093 174.033 35.2766 174.276 35.9006C174.519 36.5073 174.891 37.0013 175.394 37.3826C175.897 37.7466 176.529 37.9286 177.292 37.9286C178.089 37.9286 178.869 37.7293 179.632 37.3306C180.395 36.9146 180.993 36.3599 181.426 35.6666L183.272 36.2126C182.856 36.8713 182.31 37.4606 181.634 37.9806C180.958 38.5006 180.213 38.9079 179.398 39.2026C178.601 39.4973 177.777 39.6446 176.928 39.6446ZM179.658 27.2946C178.757 27.2946 177.942 27.4939 177.214 27.8926C176.486 28.2739 175.862 28.8026 175.342 29.4786C174.839 30.1546 174.467 30.8999 174.224 31.7146C174.796 31.7493 175.299 31.7839 175.732 31.8186C176.183 31.8359 176.607 31.8446 177.006 31.8446C178.323 31.8446 179.363 31.7319 180.126 31.5066C180.889 31.2813 181.435 30.9693 181.764 30.5706C182.111 30.1719 182.284 29.7213 182.284 29.2186C182.284 28.5599 182.041 28.0746 181.556 27.7626C181.088 27.4506 180.455 27.2946 179.658 27.2946ZM189.046 39.6446C186.931 39.6446 185.874 38.5006 185.874 36.2126C185.874 35.8833 185.9 35.5366 185.952 35.1726C186.004 34.7913 186.073 34.3839 186.16 33.9506L187.902 25.8126H190.164L188.526 33.5086C188.37 34.2019 188.292 34.7999 188.292 35.3026C188.292 36.8799 188.968 37.6686 190.32 37.6686C191.186 37.6686 192.062 37.3739 192.946 36.7846C193.847 36.1779 194.601 35.3546 195.208 34.3146L197.002 25.8126H199.29L197.002 36.5766C196.984 36.6459 196.967 36.7066 196.95 36.7586C196.95 36.8106 196.95 36.8626 196.95 36.9146C196.95 37.2266 197.14 37.3913 197.522 37.4086L197.106 39.3846C196.915 39.4019 196.742 39.4193 196.586 39.4366C196.447 39.4713 196.317 39.4886 196.196 39.4886C195.728 39.4886 195.372 39.3846 195.13 39.1766C194.887 38.9686 194.766 38.6913 194.766 38.3446C194.766 38.1886 194.783 37.9806 194.818 37.7206C194.852 37.4433 194.93 37.0273 195.052 36.4726C194.272 37.4779 193.353 38.2579 192.296 38.8126C191.238 39.3673 190.155 39.6446 189.046 39.6446Z" fill="white"/>
</svg>
